<svg width="20" height="20" viewBox="0 0 20 20" fill="none" xmlns="http://www.w3.org/2000/svg">
<path fill-rule="evenodd" clip-rule="evenodd" d="M4.55833 4.55833C4.67552 4.44129 4.83437 4.37555 5 4.37555C5.16562 4.37555 5.32448 4.44129 5.44167 4.55833L10 9.11666L14.5583 4.55833C14.6156 4.49692 14.6846 4.44767 14.7612 4.41351C14.8379 4.37935 14.9206 4.36098 15.0046 4.3595C15.0885 4.35802 15.1718 4.37346 15.2497 4.40489C15.3275 4.43633 15.3982 4.48311 15.4575 4.54246C15.5169 4.60181 15.5637 4.67251 15.5951 4.75033C15.6265 4.82815 15.642 4.91151 15.6405 4.99543C15.639 5.07935 15.6206 5.16211 15.5865 5.23878C15.5523 5.31544 15.5031 5.38444 15.4417 5.44166L10.8833 10L15.4417 14.5583C15.5031 14.6155 15.5523 14.6845 15.5865 14.7612C15.6206 14.8379 15.639 14.9206 15.6405 15.0046C15.642 15.0885 15.6265 15.1718 15.5951 15.2497C15.5637 15.3275 15.5169 15.3982 15.4575 15.4575C15.3982 15.5169 15.3275 15.5637 15.2497 15.5951C15.1718 15.6265 15.0885 15.642 15.0046 15.6405C14.9206 15.639 14.8379 15.6206 14.7612 15.5865C14.6846 15.5523 14.6156 15.5031 14.5583 15.4417L10 10.8833L5.44167 15.4417C5.32319 15.5521 5.16648 15.6122 5.00456 15.6093C4.84265 15.6065 4.68816 15.5409 4.57365 15.4263C4.45914 15.3118 4.39354 15.1573 4.39069 14.9954C4.38783 14.8335 4.44793 14.6768 4.55833 14.5583L9.11667 10L4.55833 5.44166C4.44129 5.32447 4.37555 5.16562 4.37555 5C4.37555 4.83437 4.44129 4.67552 4.55833 4.55833Z" fill="#545454"/>
</svg>
